<svg preserveAspectRatio="none" overflow="visible" style="display: block;" width="23.5" height="13.5" viewBox="0 0 23.5 13.5" fill="none" xmlns="http://www.w3.org/2000/svg">
<path id="two_wheeler" d="M3.75 13.5C2.71417 13.5 1.83017 13.134 1.098 12.402C0.366 11.6698 0 10.7858 0 9.75C0 8.80633 0.312167 7.98392 0.9365 7.28275C1.56083 6.58142 2.34483 6.17433 3.2885 6.0615H3.654L2.5115 5.09625H0V3.90375H4.01925L6.73075 5.51925L10.7885 4H14.4193L12.4655 1.5H10V0H13.1845L15.1693 2.54625L18.327 1.154V3.51925H15.95L18.1423 6.35775C18.3923 6.23208 18.6528 6.14108 18.924 6.08475C19.1952 6.02825 19.4705 6 19.75 6C20.7858 6 21.6698 6.366 22.402 7.098C23.134 7.83017 23.5 8.71417 23.5 9.75C23.5 10.7858 23.134 11.6698 22.402 12.402C21.6698 13.134 20.7858 13.5 19.75 13.5C18.7142 13.5 17.8302 13.134 17.098 12.402C16.366 11.6698 16 10.7858 16 9.75C16 9.28717 16.0856 8.84483 16.2568 8.423C16.4279 8.00133 16.668 7.61675 16.977 7.26925L16.1308 6.20775L12.6345 11.5H9.84625L7.5 9.4615V9.90375C7.44867 10.9089 7.06208 11.7596 6.34025 12.4557C5.61858 13.1519 4.75517 13.5 3.75 13.5ZM3.75 12C4.377 12 4.90875 11.7818 5.34525 11.3453C5.78175 10.9088 6 10.377 6 9.75C6 9.123 5.78175 8.59125 5.34525 8.15475C4.90875 7.71825 4.377 7.5 3.75 7.5C3.123 7.5 2.59125 7.71825 2.15475 8.15475C1.71825 8.59125 1.5 9.123 1.5 9.75C1.5 10.377 1.71825 10.9088 2.15475 11.3453C2.59125 11.7818 3.123 12 3.75 12ZM19.75 12C20.377 12 20.9088 11.7818 21.3453 11.3453C21.7818 10.9088 22 10.377 22 9.75C22 9.123 21.7818 8.59125 21.3453 8.15475C20.9088 7.71825 20.377 7.5 19.75 7.5C19.123 7.5 18.5913 7.71825 18.1548 8.15475C17.7183 8.59125 17.5 9.123 17.5 9.75C17.5 10.377 17.7183 10.9088 18.1548 11.3453C18.5913 11.7818 19.123 12 19.75 12ZM11.8348 10L14.8115 5.5H11.0615L7.01925 7.00375L10.4038 10H11.8348Z" fill="#1C1B1F"/>
</svg>
